<?xml version="1.0" encoding="utf-8"?>
<!-- Generator: Adobe Illustrator 16.0.0, SVG Export Plug-In . SVG Version: 6.00 Build 0)  -->
<!DOCTYPE svg PUBLIC "-//W3C//DTD SVG 1.1//EN" "http://www.w3.org/Graphics/SVG/1.1/DTD/svg11.dtd">
<svg version="1.1" id="Layer_1" xmlns="http://www.w3.org/2000/svg" xmlns:xlink="http://www.w3.org/1999/xlink" x="0px" y="0px"
	 width="618.579px" height="88.025px" viewBox="0 0 618.579 88.025" enable-background="new 0 0 618.579 88.025"
	 xml:space="preserve">
<path fill="#0175A8" d="M594.14,48.164v-5.575c0.021-1.958,0.436-3.421,1.228-4.37c0.81-0.968,1.897-1.444,3.281-1.444
	c1.385,0,2.472,0.476,3.282,1.444c0.79,0.949,1.205,2.412,1.226,4.37v5.575H594.14z M618.577,59.79V44.01
	c0.04-4.664-0.612-8.501-1.916-11.545c-1.326-3.025-3.5-5.279-6.526-6.762c-3.025-1.484-7.097-2.215-12.198-2.215
	s-9.174,0.731-12.201,2.215c-3.022,1.483-5.199,3.737-6.522,6.762c-1.306,3.044-1.938,6.881-1.918,11.545v27.405
	c0,3.638,0.712,6.683,2.154,9.155c1.464,2.471,3.717,4.328,6.763,5.574c3.045,1.246,6.959,1.879,11.725,1.879
	c4.765,0,8.679-0.633,11.724-1.879s5.3-3.104,6.762-5.574c1.445-2.473,2.177-5.518,2.155-9.155v-5.457h-15.421v3.321
	c-0.021,1.996-0.436,3.4-1.226,4.252c-0.811,0.83-1.897,1.226-3.282,1.205c-1.325,0.021-2.413-0.375-3.243-1.205
	c-0.811-0.852-1.245-2.256-1.266-4.252v-9.49H618.577z M548.903,41.995c0-1.819,0.295-3.163,0.889-3.994
	c0.594-0.83,1.481-1.246,2.67-1.226c0.729,0,1.441,0.179,2.114,0.554c0.692,0.377,1.246,0.949,1.7,1.721
	c0.454,0.77,0.673,1.759,0.692,2.945v27.523c-0.02,1.186-0.238,2.153-0.692,2.926c-0.454,0.791-1.008,1.365-1.7,1.74
	c-0.673,0.375-1.385,0.553-2.114,0.553c-1.188,0.021-2.076-0.396-2.67-1.226c-0.594-0.831-0.889-2.175-0.889-3.993V41.995z
	 M557.681,86.362h16.133v-84.7h-16.845v29.894h-0.238c-0.395-1.443-1.126-2.769-2.192-3.994c-1.069-1.206-2.473-2.195-4.192-2.925
	c-1.701-0.752-3.738-1.128-6.071-1.148c-2.391,0.02-4.507,0.554-6.326,1.621c-1.839,1.088-3.263,2.61-4.31,4.608
	c-1.029,1.996-1.562,4.389-1.582,7.176v37.725c0.021,2.786,0.553,5.159,1.582,7.157c1.047,1.996,2.471,3.539,4.31,4.627
	c1.819,1.066,3.936,1.601,6.326,1.621c2.235-0.021,4.231-0.455,6.031-1.284c1.799-0.851,3.302-1.998,4.547-3.481
	c1.246-1.462,2.155-3.163,2.709-5.081l-0.117,0.118h0.236V86.362z M511.138,70.824c-0.019,0.907-0.197,1.641-0.534,2.233
	c-0.354,0.572-0.77,0.988-1.266,1.264c-0.473,0.277-0.949,0.416-1.402,0.416c-1.543,0.021-2.748-0.375-3.599-1.166
	c-0.831-0.812-1.266-2.115-1.266-3.936v-1.542c0-1.7,0.179-3.063,0.533-4.131c0.375-1.049,0.89-1.919,1.583-2.63
	c0.691-0.712,1.54-1.384,2.529-2.018c1.009-0.633,2.137-1.385,3.421-2.254V70.824z M503.071,44.723
	c-0.021-2.214,0.099-3.974,0.336-5.318c0.258-1.344,0.731-2.313,1.464-2.926c0.712-0.612,1.778-0.909,3.183-0.889
	c0.909,0.02,1.641,0.256,2.195,0.73c0.553,0.455,0.969,1.069,1.226,1.78c0.256,0.712,0.375,1.464,0.375,2.234
	c-0.02,1.78-0.494,3.164-1.423,4.153c-0.91,0.989-2.136,1.739-3.659,2.293c-1.521,0.535-3.183,1.027-5.002,1.464
	c-1.817,0.435-3.638,1.007-5.457,1.7c-1.818,0.69-3.479,1.68-5.001,2.966c-1.522,1.304-2.75,3.063-3.659,5.317
	c-0.929,2.235-1.403,5.142-1.423,8.681v3.559c0,4.211,0.515,7.612,1.522,10.202c1.008,2.57,2.551,4.45,4.627,5.615
	c2.076,1.186,4.686,1.76,7.85,1.74c2.688,0.039,5.081-0.592,7.157-1.879c2.095-1.285,3.737-3.439,4.943-6.426h0.236
	c0,1.129,0.061,2.273,0.217,3.401c0.158,1.147,0.436,2.214,0.851,3.241h16.253c-0.277-0.967-0.574-2.016-0.871-3.123
	c-0.276-1.107-0.513-2.334-0.711-3.717c-0.197-1.385-0.316-2.985-0.316-4.785V38.912c0-3.264-0.79-6.031-2.313-8.325
	c-1.542-2.293-3.777-4.053-6.722-5.258c-2.947-1.228-6.526-1.84-10.776-1.84c-4.231,0-7.83,0.612-10.777,1.84
	c-2.944,1.205-5.179,2.965-6.722,5.258c-1.522,2.294-2.293,5.061-2.313,8.325v5.811H503.071z M459.02,41.995
	c0-1.819,0.296-3.163,0.89-3.994c0.594-0.83,1.482-1.246,2.67-1.226c0.73,0,1.442,0.179,2.114,0.554
	c0.692,0.377,1.246,0.949,1.701,1.721c0.455,0.77,0.672,1.759,0.692,2.945v27.523c-0.021,1.186-0.237,2.153-0.692,2.926
	c-0.455,0.791-1.009,1.365-1.701,1.74c-0.672,0.375-1.384,0.553-2.114,0.553c-1.188,0.021-2.076-0.396-2.67-1.226
	c-0.594-0.831-0.89-2.175-0.89-3.993V41.995z M467.799,86.362h16.133v-84.7h-16.845v29.894h-0.237
	c-0.396-1.443-1.127-2.769-2.193-3.994c-1.069-1.206-2.473-2.195-4.193-2.925c-1.701-0.752-3.737-1.128-6.07-1.148
	c-2.392,0.02-4.508,0.554-6.327,1.621c-1.838,1.088-3.262,2.61-4.309,4.608c-1.029,1.996-1.563,4.389-1.583,7.176v37.725
	c0.02,2.786,0.554,5.159,1.583,7.157c1.047,1.996,2.471,3.539,4.309,4.627c1.819,1.066,3.936,1.601,6.327,1.621
	c2.234-0.021,4.231-0.455,6.03-1.284c1.799-0.851,3.302-1.998,4.548-3.481c1.245-1.462,2.154-3.163,2.708-5.081l-0.117,0.118h0.237
	V86.362z M437.982,1.662h-15.422v16.133h15.422V1.662z M421.849,86.362h16.845V25.149h-16.845V86.362z M373.882,68.093
	c-0.02,4.647,0.693,8.443,2.157,11.39c1.462,2.945,3.795,5.1,6.999,6.484c3.222,1.385,7.434,2.076,12.672,2.057
	c5.24,0.02,9.471-0.672,12.674-2.057c3.204-1.385,5.537-3.539,6.999-6.484c1.464-2.946,2.175-6.742,2.157-11.39V53.147h-17.322
	v15.658c0,0.83-0.217,1.522-0.632,2.096c-0.415,0.555-0.969,0.99-1.642,1.267c-0.691,0.297-1.424,0.435-2.234,0.435
	c-1.027,0.019-1.877-0.158-2.53-0.515c-0.672-0.356-1.167-0.948-1.502-1.819c-0.317-0.869-0.475-2.074-0.475-3.598V21.353
	c0-1.541,0.157-2.728,0.475-3.597c0.335-0.87,0.83-1.483,1.502-1.82c0.653-0.356,1.503-0.533,2.53-0.513
	c0.811,0,1.543,0.138,2.234,0.434c0.673,0.278,1.227,0.712,1.642,1.265c0.415,0.574,0.632,1.266,0.632,2.096v12.695h17.322V19.931
	c0.018-4.647-0.693-8.444-2.157-11.389c-1.462-2.946-3.795-5.101-6.999-6.485C405.181,0.672,400.95-0.02,395.71,0
	c-5.238-0.02-9.45,0.672-12.672,2.056c-3.204,1.384-5.537,3.539-6.999,6.485c-1.464,2.945-2.177,6.742-2.157,11.389V68.093z
	 M328.052,70.824c-0.02,0.907-0.197,1.641-0.533,2.233c-0.357,0.572-0.771,0.988-1.266,1.264c-0.475,0.277-0.949,0.416-1.404,0.416
	c-1.543,0.021-2.748-0.375-3.599-1.166c-0.83-0.812-1.265-2.115-1.265-3.936v-1.542c0-1.7,0.178-3.063,0.532-4.131
	c0.378-1.049,0.892-1.919,1.583-2.63c0.692-0.712,1.542-1.384,2.531-2.018c1.007-0.633,2.135-1.385,3.42-2.254V70.824z
	 M319.985,44.723c-0.02-2.214,0.099-3.974,0.336-5.318c0.256-1.344,0.731-2.313,1.463-2.926c0.711-0.612,1.779-0.909,3.183-0.889
	c0.911,0.02,1.642,0.256,2.194,0.73c0.555,0.455,0.97,1.069,1.227,1.78c0.258,0.712,0.376,1.464,0.376,2.234
	c-0.021,1.78-0.495,3.164-1.424,4.153c-0.909,0.989-2.136,1.739-3.657,2.293c-1.521,0.535-3.183,1.027-5.003,1.464
	c-1.819,0.435-3.637,1.007-5.456,1.7c-1.82,0.69-3.481,1.68-5.003,2.966c-1.523,1.304-2.748,3.063-3.657,5.317
	c-0.93,2.235-1.405,5.142-1.425,8.681v3.559c0,4.211,0.514,7.612,1.523,10.202c1.008,2.57,2.551,4.45,4.626,5.615
	c2.077,1.186,4.686,1.76,7.85,1.74c2.689,0.039,5.081-0.592,7.157-1.879c2.096-1.285,3.737-3.439,4.942-6.426h0.237
	c0,1.129,0.06,2.273,0.218,3.401c0.159,1.147,0.437,2.214,0.852,3.241h16.253c-0.276-0.967-0.574-2.016-0.871-3.123
	c-0.276-1.107-0.515-2.334-0.712-3.717c-0.197-1.385-0.316-2.985-0.316-4.785V38.912c0-3.264-0.791-6.031-2.313-8.325
	c-1.542-2.293-3.777-4.053-6.722-5.258c-2.945-1.228-6.525-1.84-10.775-1.84c-4.232,0-7.831,0.612-10.775,1.84
	c-2.947,1.205-5.181,2.965-6.724,5.258c-1.522,2.294-2.293,5.061-2.313,8.325v5.811H319.985z M275.934,41.995
	c0-1.819,0.296-3.163,0.889-3.994c0.594-0.83,1.484-1.246,2.669-1.226c0.732,0,1.445,0.179,2.117,0.554
	c0.692,0.377,1.245,0.949,1.7,1.721c0.454,0.77,0.672,1.759,0.692,2.945v27.523c-0.02,1.186-0.238,2.153-0.692,2.926
	c-0.455,0.791-1.008,1.365-1.7,1.74c-0.672,0.375-1.385,0.553-2.117,0.553c-1.185,0.021-2.075-0.396-2.669-1.226
	c-0.593-0.831-0.889-2.175-0.889-3.993V41.995z M284.712,86.362h16.134v-84.7h-16.845v29.894h-0.238
	c-0.395-1.443-1.126-2.769-2.194-3.994c-1.068-1.206-2.472-2.195-4.192-2.925c-1.7-0.752-3.737-1.128-6.07-1.148
	c-2.392,0.02-4.508,0.554-6.327,1.621c-1.839,1.088-3.262,2.61-4.31,4.608c-1.028,1.996-1.562,4.389-1.581,7.176v37.725
	c0.019,2.786,0.553,5.159,1.581,7.157c1.048,1.996,2.471,3.539,4.31,4.627c1.819,1.066,3.935,1.601,6.327,1.621
	c2.234-0.021,4.231-0.455,6.031-1.284c1.798-0.851,3.302-1.998,4.547-3.481c1.246-1.462,2.155-3.163,2.709-5.081l-0.119,0.118h0.237
	V86.362z M214.681,86.362h16.846v-84.7h-16.846V86.362z M194.593,70.824c-0.02,0.907-0.198,1.641-0.534,2.233
	c-0.356,0.572-0.771,0.988-1.265,1.264c-0.474,0.277-0.95,0.416-1.404,0.416c-1.542,0.021-2.748-0.375-3.599-1.166
	c-0.83-0.812-1.265-2.115-1.265-3.936v-1.542c0-1.7,0.178-3.063,0.534-4.131c0.375-1.049,0.89-1.919,1.582-2.63
	c0.692-0.712,1.542-1.384,2.53-2.018c1.009-0.633,2.136-1.385,3.421-2.254V70.824z M186.526,44.723
	c-0.02-2.214,0.099-3.974,0.336-5.318c0.257-1.344,0.732-2.313,1.463-2.926c0.712-0.612,1.779-0.909,3.183-0.889
	c0.91,0.02,1.641,0.256,2.195,0.73c0.554,0.455,0.969,1.069,1.226,1.78c0.257,0.712,0.376,1.464,0.376,2.234
	c-0.02,1.78-0.495,3.164-1.423,4.153c-0.91,0.989-2.136,1.739-3.658,2.293c-1.523,0.535-3.184,1.027-5.003,1.464
	c-1.819,0.435-3.638,1.007-5.457,1.7c-1.819,0.69-3.48,1.68-5.002,2.966c-1.522,1.304-2.748,3.063-3.658,5.317
	c-0.93,2.235-1.404,5.142-1.423,8.681v3.559c0,4.211,0.513,7.612,1.521,10.202c1.009,2.57,2.552,4.45,4.627,5.615
	c2.076,1.186,4.686,1.76,7.85,1.74c2.689,0.039,5.081-0.592,7.157-1.879c2.097-1.285,3.737-3.439,4.943-6.426h0.237
	c0,1.129,0.06,2.273,0.218,3.401c0.158,1.147,0.435,2.214,0.85,3.241h16.253c-0.277-0.967-0.574-2.016-0.871-3.123
	c-0.276-1.107-0.514-2.334-0.711-3.717c-0.197-1.385-0.317-2.985-0.317-4.785V38.912c0-3.264-0.791-6.031-2.313-8.325
	c-1.542-2.293-3.776-4.053-6.722-5.258c-2.946-1.228-6.525-1.84-10.775-1.84c-4.232,0-7.831,0.612-10.776,1.84
	c-2.947,1.205-5.18,2.965-6.723,5.258c-1.522,2.294-2.293,5.061-2.313,8.325v5.811H186.526z M125.629,86.362h16.846V43.895
	c0-1.801,0.138-3.224,0.454-4.271c0.297-1.049,0.752-1.78,1.384-2.215c0.633-0.435,1.444-0.654,2.433-0.634
	c1.245-0.02,2.194,0.436,2.827,1.365c0.652,0.93,0.969,2.451,0.969,4.567v43.655h16.845V38.199c-0.02-3.44-0.573-6.229-1.661-8.403
	c-1.087-2.174-2.57-3.757-4.468-4.784c-1.898-1.029-4.093-1.543-6.564-1.523c-2.017,0.02-3.876,0.436-5.556,1.246
	c-1.681,0.81-3.124,1.878-4.35,3.202c-1.226,1.326-2.155,2.768-2.788,4.331h-0.237v-7.118h-16.134V86.362z M91.424,86.362h16.846
	V55.637c0.019-2.451,0.474-4.527,1.384-6.188c0.89-1.681,2.115-2.946,3.638-3.796c1.542-0.851,3.262-1.285,5.18-1.285
	c1.068,0,2.136,0.119,3.203,0.355h0.238V24.201c-1.622,0.217-3.045,0.554-4.291,1.008c-1.246,0.455-2.372,1.127-3.421,2.038
	c-1.028,0.928-2.056,2.194-3.064,3.795c-1.009,1.601-2.076,3.677-3.223,6.209h-0.238V25.149H91.424V86.362z M46.661,69.635
	c0.02,3.282,0.533,6.09,1.562,8.424c1.028,2.332,2.472,4.23,4.33,5.713c1.859,1.465,4.053,2.531,6.564,3.224
	c2.531,0.692,5.299,1.028,8.305,1.028c3.005,0,5.773-0.336,8.304-1.028c2.511-0.692,4.705-1.759,6.564-3.224
	c1.858-1.482,3.302-3.381,4.33-5.713c1.028-2.334,1.542-5.142,1.561-8.424V41.876c-0.019-3.282-0.533-6.09-1.561-8.423
	c-1.028-2.334-2.472-4.251-4.33-5.714c-1.859-1.462-4.053-2.55-6.564-3.223c-2.531-0.691-5.299-1.028-8.304-1.028
	c-3.006,0-5.774,0.337-8.305,1.028c-2.511,0.673-4.705,1.761-6.564,3.223c-1.858,1.463-3.302,3.38-4.33,5.714
	c-1.029,2.333-1.542,5.141-1.562,8.423V69.635z M63.506,41.995c-0.019-1.819,0.258-3.163,0.851-3.994
	c0.573-0.83,1.601-1.246,3.065-1.226c1.462-0.02,2.49,0.396,3.064,1.226c0.593,0.831,0.87,2.175,0.85,3.994v27.523
	c0.02,1.818-0.257,3.162-0.85,3.993c-0.574,0.83-1.602,1.246-3.064,1.226c-1.464,0.021-2.492-0.396-3.065-1.226
	c-0.593-0.831-0.87-2.175-0.851-3.993V41.995z M0,59.671v8.422c0,3.875,0.415,7.099,1.285,9.669c0.85,2.59,2.155,4.627,3.934,6.131
	c1.78,1.502,4.034,2.569,6.801,3.201c2.749,0.633,6.011,0.949,9.808,0.93c3.795,0.02,7.038-0.297,9.747-0.93
	c2.709-0.632,4.904-1.699,6.624-3.201c1.72-1.504,2.966-3.541,3.776-6.131c0.811-2.57,1.206-5.794,1.206-9.669V1.662h-17.32v65.721
	c0.02,1.878-0.316,3.222-1.008,4.033c-0.692,0.81-1.859,1.205-3.5,1.187c-1.641,0.019-2.808-0.377-3.499-1.187
	c-0.692-0.812-1.028-2.155-1.009-4.033v-7.711H0z"/>
</svg>
