<?xml version="1.0" encoding="utf-8"?>
<!-- Generator: Adobe Illustrator 16.0.0, SVG Export Plug-In . SVG Version: 6.00 Build 0)  -->
<!DOCTYPE svg PUBLIC "-//W3C//DTD SVG 1.1//EN" "http://www.w3.org/Graphics/SVG/1.1/DTD/svg11.dtd">
<svg version="1.1" id="Layer_1" xmlns="http://www.w3.org/2000/svg" xmlns:xlink="http://www.w3.org/1999/xlink" x="0px" y="0px"
	 width="502.064px" height="173.66px" viewBox="0 0 502.064 173.66" enable-background="new 0 0 502.064 173.66"
	 xml:space="preserve">
<g>
	<path fill="#FFFFFF" d="M72.205,173.213C21.841,178.355,0,138.27,0,93.557C0,37.797,37.002,0.795,64.497,0.025
		c35.718-1.029,40.599,29.549,35.975,48.307c-2.827,11.307-17.217,15.932-27.495,9.765c0,0,1.028-2.313,1.798-3.597
		c5.14-16.703,5.911-47.537-14.646-47.024c-19.53,0.772-33.406,30.836-33.406,79.658c0,36.232,13.876,80.429,48.566,76.831
		c30.321-3.084,49.336-38.544,51.648-64.497c0.257-2.313,6.681-6.938,6.425-1.284C132.077,131.844,106.38,169.618,72.205,173.213z"
		/>
	<path fill="#FFFFFF" d="M225.087,95.357c-3.083,33.401-11.819,59.101-28.008,60.385c-10.021,0.771-18.501-8.993-22.099-25.184
		c-4.111,14.135-10.792,23.129-20.042,24.924c-14.133,2.828-34.69-8.219-33.405-39.569c1.542-38.286,38.801-55.759,58.586-38.286
		v0.257c6.938-8.994,16.703-6.167,19.786-3.083c-0.257,1.285-1.799,18.245-1.799,35.46c0,23.384,0.771,35.204,5.911,35.204
		c6.938,0,12.591-26.468,14.646-49.08C218.921,94.073,225.859,89.445,225.087,95.357z M173.439,98.698
		c0.515-5.909,1.542-10.537,3.084-14.391c-13.619-6.681-26.21-0.515-29.551,23.897c-3.34,25.438,3.341,38.544,11.049,37.26
		c7.965-1.288,12.848-20.303,14.903-45.997C172.925,99.211,173.182,99.211,173.439,98.698z"/>
	<path fill="#FFFFFF" d="M312.958,95.614c-3.342,33.146-12.079,58.844-28.008,60.128c-10.277,0.771-20.044-6.682-23.387-27.493
		c-4.883,16.187-12.073,26.724-22.097,27.493c-13.104,1.025-25.696-11.821-24.411-49.077c0.257-13.62,0.513-23.899,0.513-32.635
		c-5.139-1.542-8.993-3.598-10.535-6.167c-3.854-6.424,1.285-10.278,1.285-9.765c0,1.027,3.341,2.313,8.994,3.084
		c-0.257-13.104-1.285-19.529-2.056-26.21c-0.257-1.542-0.771-3.854-0.771-3.854c23.64-8.223,31.862-0.257,30.578,31.606
		c5.91,0,11.819,0,17.987-0.514c-0.256-14.389-1.284-21.841-2.058-28.779c-0.258-1.285-1.021-3.854-1.021-3.854
		c23.122-7.965,31.088-0.77,30.832,28.78c3.598-0.771,7.195-1.799,10.532-3.084c0.771,0,1.804-0.513,1.804-0.513
		c4.62,10.021,4.364,24.154-13.877,25.438c-4.884,53.446-1.803,65.269,4.365,65.269c6.939,0,12.848-26.468,14.646-49.08
		C306.534,94.073,313.213,89.445,312.958,95.614z M260.796,97.668c0-6.424,0.256-12.334,0.256-17.473
		c-6.424-0.257-12.848-0.513-19.015-1.285c-4.881,52.163-2.312,66.553,4.111,66.553C252.83,145.464,258.739,120.023,260.796,97.668z
		"/>
	<path fill="#FFFFFF" d="M355.092,95.357c-3.081,33.401-11.817,59.613-27.752,60.385c-13.62,0.515-23.897-16.445-24.409-43.168
		c-1.029-36.232,16.701-42.4,27.234-31.864c-0.256,1.285-2.053,9.25-2.053,29.55c0,23.383,1.029,35.204,5.906,35.204
		c6.939,0,12.853-26.468,14.647-49.08C348.924,94.073,355.604,89.445,355.092,95.357z M321.946,62.98
		c-7.196,0-13.62-7.965-13.877-16.188c-0.519-11.564,7.965-17.217,18.504-15.418c10.789,1.798,14.898,8.993,12.074,18.243
		C336.333,57.584,329.142,63.237,321.946,62.98z"/>
	<path fill="#FFFFFF" d="M406.737,115.398c13.104,1.027,19.78-6.424,22.605-15.416c0.773-2.313,8.481-4.883,6.431,0.515
		c-3.6,10.789-13.878,23.381-31.866,22.096c-8.993,20.56-23.898,33.149-34.176,33.149c-15.162,0-24.153-16.445-24.666-43.168
		c-1.028-36.747,15.416-49.594,26.979-37.774c-0.256,1.285-1.797,18.245-1.797,35.46c0,23.383,1.029,35.204,6.936,35.204
		c5.141,0,13.877-9.508,19.789-24.155c-22.613-7.966-21.072-49.593-5.396-55.247c17.985-6.681,24.922,15.418,16.958,43.683
		L406.737,115.398z M399.541,113.6l1.284-4.625c2.826-11.563-0.256-20.557-7.196-18.244
		C386.176,93.044,389.006,108.46,399.541,113.6z"/>
	<path fill="#FFFFFF" d="M445.273,132.102c3.594,10.022,10.276,15.162,20.556,13.362c11.818-2.056,27.491-19.784,29.805-45.997
		c0.261-2.313,6.687-6.938,6.423-1.283c-1.021,33.146-20.299,53.445-39.567,57.299c-22.099,4.627-46.252-9.762-45.229-39.568
		c1.029-30.063,23.644-43.683,40.86-43.683c14.898,0,26.467,11.563,22.352,25.955C475.85,113.6,457.603,125.42,445.273,132.102z
		 M443.471,125.936c5.656-4.369,10.022-10.537,12.594-19.271c4.108-16.704,2.058-28.781-1.799-28.781
		c-5.139,0-11.051,12.849-11.821,31.862C442.443,115.913,442.699,121.052,443.471,125.936z"/>
</g>
</svg>
